<?xml version="1.0" standalone="no"?>
<!DOCTYPE svg PUBLIC "-//W3C//DTD SVG 20010904//EN"
 "http://www.w3.org/TR/2001/REC-SVG-20010904/DTD/svg10.dtd">
<svg version="1.0" xmlns="http://www.w3.org/2000/svg"
 width="2000.000000pt" height="2000.000000pt" viewBox="0 0 2000.000000 2000.000000"
 preserveAspectRatio="xMidYMid meet">
<metadata>
Created by potrace 1.11, written by Peter Selinger 2001-2013
</metadata>
<g transform="translate(0.000000,2000.000000) scale(0.100000,-0.100000)"
fill="#000000" stroke="none">
<path d="M15460 19396 c0 -2 8 -10 18 -17 15 -13 16 -12 3 4 -13 16 -21 21
-21 13z"/>
<path d="M15980 19346 c0 -3 9 -10 20 -16 11 -6 20 -8 20 -6 0 3 -9 10 -20 16
-11 6 -20 8 -20 6z"/>
<path d="M15950 19311 c0 -5 7 -12 16 -15 14 -5 15 -4 4 9 -14 17 -20 19 -20
6z"/>
<path d="M14980 19306 c0 -3 9 -10 19 -16 15 -7 22 -7 27 2 4 7 4 10 -1 6 -4
-4 -16 -3 -26 3 -11 5 -19 7 -19 5z"/>
<path d="M15726 19298 c3 -5 10 -6 15 -3 13 9 11 12 -6 12 -8 0 -12 -4 -9 -9z"/>
<path d="M16172 19237 c-8 -10 -6 -13 11 -14 12 0 16 1 9 4 -6 3 -10 9 -6 14
8 14 -2 11 -14 -4z"/>
<path d="M16253 19227 c0 -8 6 -14 14 -14 9 0 10 4 2 14 -6 7 -12 13 -14 13
-1 0 -2 -6 -2 -13z"/>
<path d="M16185 19189 c-3 -4 2 -6 10 -5 21 3 28 13 10 13 -9 0 -18 -4 -20 -8z"/>
<path d="M14696 19148 c3 -5 10 -6 15 -3 13 9 11 12 -6 12 -8 0 -12 -4 -9 -9z"/>
<path d="M2930 19141 c0 -6 4 -13 10 -16 6 -3 7 1 4 9 -7 18 -14 21 -14 7z"/>
<path d="M14666 19113 c-6 -14 -5 -15 5 -6 7 7 10 15 7 18 -3 3 -9 -2 -12 -12z"/>
<path d="M14699 19113 c-13 -16 -12 -17 4 -4 9 7 17 15 17 17 0 8 -8 3 -21
-13z"/>
<path d="M14586 19087 c3 -10 9 -15 12 -12 3 3 0 11 -7 18 -10 9 -11 8 -5 -6z"/>
<path d="M3494 19082 c3 -6 -1 -15 -10 -20 -15 -8 -14 -10 2 -16 10 -4 15 -4
11 0 -4 4 -2 13 4 20 7 8 6 14 -2 20 -7 4 -9 3 -5 -4z"/>
<path d="M16425 19080 c3 -5 8 -10 11 -10 2 0 4 5 4 10 0 6 -5 10 -11 10 -5 0
-7 -4 -4 -10z"/>
<path d="M14515 19011 c-3 -5 -2 -12 3 -15 5 -3 9 1 9 9 0 17 -3 19 -12 6z"/>
<path d="M14467 18929 c7 -7 15 -10 18 -7 3 3 -2 9 -12 12 -14 6 -15 5 -6 -5z"/>
<path d="M14346 18848 c3 -5 10 -6 15 -3 13 9 11 12 -6 12 -8 0 -12 -4 -9 -9z"/>
<path d="M14386 18848 c3 -5 10 -6 15 -3 13 9 11 12 -6 12 -8 0 -12 -4 -9 -9z"/>
<path d="M16895 18771 c-3 -5 -2 -12 3 -15 5 -3 9 1 9 9 0 17 -3 19 -12 6z"/>
<path d="M14165 18631 c-3 -5 -2 -12 3 -15 5 -3 9 1 9 9 0 17 -3 19 -12 6z"/>
<path d="M13910 18616 c0 -2 7 -7 16 -10 8 -3 12 -2 9 4 -6 10 -25 14 -25 6z"/>
<path d="M4083 18585 c0 -8 4 -15 9 -15 4 0 8 4 8 9 0 6 -4 12 -8 15 -5 3 -9
-1 -9 -9z"/>
<path d="M2020 18509 c0 -5 -5 -7 -12 -3 -7 4 -8 3 -4 -4 4 -6 13 -9 21 -6 8
4 12 10 9 15 -7 12 -14 11 -14 -2z"/>
<path d="M14106 18492 c-3 -5 1 -9 9 -9 8 0 12 4 9 9 -3 4 -7 8 -9 8 -2 0 -6
-4 -9 -8z"/>
<path d="M13823 18468 c-15 -20 -25 -38 -20 -38 3 0 12 11 21 25 17 26 16 35
-1 13z"/>
<path d="M17060 18440 c6 -11 13 -20 16 -20 2 0 0 9 -6 20 -6 11 -13 20 -16
20 -2 0 0 -9 6 -20z"/>
<path d="M17180 18421 c0 -6 4 -13 10 -16 6 -3 7 1 4 9 -7 18 -14 21 -14 7z"/>
<path d="M13796 18392 c-3 -5 1 -9 9 -9 8 0 12 4 9 9 -3 4 -7 8 -9 8 -2 0 -6
-4 -9 -8z"/>
<path d="M4186 18363 c-6 -14 -5 -15 5 -6 7 7 10 15 7 18 -3 3 -9 -2 -12 -12z"/>
<path d="M4405 18201 c-6 -11 13 -26 22 -17 4 3 1 6 -6 6 -7 0 -9 5 -6 10 3 6
4 10 1 10 -3 0 -7 -4 -11 -9z"/>
<path d="M17235 18201 c-3 -5 -2 -12 3 -15 5 -3 9 1 9 9 0 17 -3 19 -12 6z"/>
<path d="M13650 18196 c0 -2 8 -10 18 -17 15 -13 16 -12 3 4 -13 16 -21 21
-21 13z"/>
<path d="M17296 18168 c3 -5 10 -6 15 -3 13 9 11 12 -6 12 -8 0 -12 -4 -9 -9z"/>
<path d="M17373 18105 c0 -8 4 -12 9 -9 5 3 6 10 3 15 -9 13 -12 11 -12 -6z"/>
<path d="M17296 18102 c-3 -5 1 -9 9 -9 8 0 12 4 9 9 -3 4 -7 8 -9 8 -2 0 -6
-4 -9 -8z"/>
<path d="M1560 18049 c0 -5 5 -7 10 -4 6 3 10 8 10 11 0 2 -4 4 -10 4 -5 0
-10 -5 -10 -11z"/>
<path d="M13504 17966 c1 -8 5 -18 8 -22 4 -3 5 1 4 10 -1 8 -5 18 -8 22 -4 3
-5 -1 -4 -10z"/>
<path d="M1420 17819 c0 -5 5 -7 10 -4 6 3 10 8 10 11 0 2 -4 4 -10 4 -5 0
-10 -5 -10 -11z"/>
<path d="M13454 17806 c1 -8 5 -18 8 -22 4 -3 5 1 4 10 -1 8 -5 18 -8 22 -4 3
-5 -1 -4 -10z"/>
<path d="M13243 17655 c0 -8 4 -12 9 -9 5 3 6 10 3 15 -9 13 -12 11 -12 -6z"/>
<path d="M1325 17610 c-3 -6 1 -7 9 -4 18 7 21 14 7 14 -6 0 -13 -4 -16 -10z"/>
<path d="M2765 17481 c-3 -5 -2 -12 3 -15 5 -3 9 1 9 9 0 17 -3 19 -12 6z"/>
<path d="M13095 17483 c3 -3 0 -11 -5 -18 -7 -8 -5 -12 4 -12 14 0 16 22 3 32
-4 3 -5 2 -2 -2z"/>
<path d="M16336 17472 c-3 -5 1 -9 9 -9 8 0 12 4 9 9 -3 4 -7 8 -9 8 -2 0 -6
-4 -9 -8z"/>
<path d="M16336 17432 c-3 -5 1 -9 9 -9 8 0 12 4 9 9 -3 4 -7 8 -9 8 -2 0 -6
-4 -9 -8z"/>
<path d="M13005 17411 c-3 -5 -2 -12 3 -15 5 -3 9 1 9 9 0 17 -3 19 -12 6z"/>
<path d="M16256 17403 c-6 -14 -5 -15 5 -6 7 7 10 15 7 18 -3 3 -9 -2 -12 -12z"/>
<path d="M2835 17401 c-3 -5 -2 -12 3 -15 5 -3 9 1 9 9 0 17 -3 19 -12 6z"/>
<path d="M2596 17383 c-6 -14 -5 -15 5 -6 7 7 10 15 7 18 -3 3 -9 -2 -12 -12z"/>
<path d="M17626 17288 c3 -5 10 -6 15 -3 13 9 11 12 -6 12 -8 0 -12 -4 -9 -9z"/>
<path d="M13005 17260 c-3 -6 1 -7 9 -4 18 7 21 14 7 14 -6 0 -13 -4 -16 -10z"/>
<path d="M12829 17243 c-13 -16 -12 -17 4 -4 9 7 17 15 17 17 0 8 -8 3 -21
-13z"/>
<path d="M12725 17161 c-3 -5 -2 -12 3 -15 5 -3 9 1 9 9 0 17 -3 19 -12 6z"/>
<path d="M1176 17143 c-6 -14 -5 -15 5 -6 7 7 10 15 7 18 -3 3 -9 -2 -12 -12z"/>
<path d="M15850 17146 c0 -2 7 -7 16 -10 8 -3 12 -2 9 4 -6 10 -25 14 -25 6z"/>
<path d="M16827 17139 c7 -7 15 -10 18 -7 3 3 -2 9 -12 12 -14 6 -15 5 -6 -5z"/>
<path d="M2996 17023 c-6 -14 -5 -15 5 -6 7 7 10 15 7 18 -3 3 -9 -2 -12 -12z"/>
<path d="M16903 17011 c0 -11 5 -18 9 -15 4 3 5 11 1 19 -7 21 -12 19 -10 -4z"/>
<path d="M17760 17001 c0 -6 4 -13 10 -16 6 -3 7 1 4 9 -7 18 -14 21 -14 7z"/>
<path d="M17780 16900 c-9 -6 -10 -10 -3 -10 6 0 15 5 18 10 8 12 4 12 -15 0z"/>
<path d="M3133 16885 c0 -8 4 -12 9 -9 5 3 6 10 3 15 -9 13 -12 11 -12 -6z"/>
<path d="M3023 16878 c3 -10 2 -20 -4 -23 -5 -4 -7 -11 -3 -16 3 -5 9 -7 14
-4 9 6 5 44 -6 54 -4 3 -4 -2 -1 -11z"/>
<path d="M15760 16849 c0 -5 5 -7 10 -4 6 3 10 8 10 11 0 2 -4 4 -10 4 -5 0
-10 -5 -10 -11z"/>
<path d="M15725 16821 c-3 -5 -2 -12 3 -15 5 -3 9 1 9 9 0 17 -3 19 -12 6z"/>
<path d="M17726 16777 c3 -10 9 -15 12 -12 3 3 0 11 -7 18 -10 9 -11 8 -5 -6z"/>
<path d="M16845 16750 c3 -5 8 -10 11 -10 2 0 4 5 4 10 0 6 -5 10 -11 10 -5 0
-7 -4 -4 -10z"/>
<path d="M3100 16701 c0 -6 4 -13 10 -16 6 -3 7 1 4 9 -7 18 -14 21 -14 7z"/>
<path d="M2366 16687 c3 -10 9 -15 12 -12 3 3 0 11 -7 18 -10 9 -11 8 -5 -6z"/>
<path d="M3066 16658 c3 -5 10 -6 15 -3 13 9 11 12 -6 12 -8 0 -12 -4 -9 -9z"/>
<path d="M16937 16629 c7 -7 15 -10 18 -7 3 3 -2 9 -12 12 -14 6 -15 5 -6 -5z"/>
<path d="M3103 16615 c0 -8 4 -12 9 -9 5 3 6 10 3 15 -9 13 -12 11 -12 -6z"/>
<path d="M2336 16598 c3 -5 10 -6 15 -3 13 9 11 12 -6 12 -8 0 -12 -4 -9 -9z"/>
<path d="M15690 16576 c0 -2 7 -7 16 -10 8 -3 12 -2 9 4 -6 10 -25 14 -25 6z"/>
<path d="M3080 16561 c0 -6 4 -13 10 -16 6 -3 7 1 4 9 -7 18 -14 21 -14 7z"/>
<path d="M15690 16526 c0 -2 8 -10 18 -17 15 -13 16 -12 3 4 -13 16 -21 21
-21 13z"/>
<path d="M17959 16493 c-13 -16 -12 -17 4 -4 9 7 17 15 17 17 0 8 -8 3 -21
-13z"/>
<path d="M17025 16461 c-3 -5 -2 -12 3 -15 5 -3 9 1 9 9 0 17 -3 19 -12 6z"/>
<path d="M17943 16452 c2 -12 6 -24 10 -28 3 -4 4 4 2 16 -6 30 -16 40 -12 12z"/>
<path d="M17770 16376 c7 -7 13 -7 20 0 6 6 3 10 -10 10 -13 0 -16 -4 -10 -10z"/>
<path d="M1023 16335 c0 -8 4 -12 9 -9 5 3 6 10 3 15 -9 13 -12 11 -12 -6z"/>
<path d="M15650 16316 c0 -2 8 -10 18 -17 15 -13 16 -12 3 4 -13 16 -21 21
-21 13z"/>
<path d="M18006 16182 c-3 -5 1 -9 9 -9 8 0 12 4 9 9 -3 4 -7 8 -9 8 -2 0 -6
-4 -9 -8z"/>
<path d="M15630 16131 c0 -7 -5 -9 -12 -5 -7 5 -8 3 -3 -5 5 -9 10 -10 18 -2
6 6 8 14 4 18 -4 3 -7 1 -7 -6z"/>
<path d="M17760 16130 c-9 -6 -10 -10 -3 -10 6 0 15 5 18 10 8 12 4 12 -15 0z"/>
<path d="M1001 16074 c0 -11 3 -14 6 -6 3 7 2 16 -1 19 -3 4 -6 -2 -5 -13z"/>
<path d="M2340 16065 c-7 -9 -11 -17 -9 -20 3 -2 10 5 17 15 14 24 10 26 -8 5z"/>
<path d="M2340 16016 c0 -2 7 -7 16 -10 8 -3 12 -2 9 4 -6 10 -25 14 -25 6z"/>
<path d="M17965 15987 c-15 -12 -16 -15 -4 -22 8 -5 11 -5 7 0 -4 4 0 14 10
21 23 18 11 18 -13 1z"/>
<path d="M1008 15973 c7 -3 16 -2 19 1 4 3 -2 6 -13 5 -11 0 -14 -3 -6 -6z"/>
<path d="M990 15947 c0 -2 6 -10 14 -16 11 -9 16 -9 22 1 4 7 4 10 -1 6 -4 -4
-14 -3 -22 3 -7 6 -13 9 -13 6z"/>
<path d="M17217 15812 c-3 -4 6 -20 19 -35 13 -16 24 -24 24 -19 0 5 -9 17
-20 27 -11 10 -17 22 -14 26 3 5 3 9 0 9 -3 0 -7 -3 -9 -8z"/>
<path d="M18013 15795 c0 -8 4 -12 9 -9 5 3 6 10 3 15 -9 13 -12 11 -12 -6z"/>
<path d="M15546 15622 c-3 -5 1 -9 9 -9 8 0 12 4 9 9 -3 4 -7 8 -9 8 -2 0 -6
-4 -9 -8z"/>
<path d="M17924 15582 c3 -5 0 -13 -6 -15 -9 -4 -10 -6 -1 -6 17 -1 25 16 12
25 -7 4 -9 3 -5 -4z"/>
<path d="M17973 15545 c0 -8 4 -12 9 -9 5 3 6 10 3 15 -9 13 -12 11 -12 -6z"/>
<path d="M17251 15516 c-10 -11 -9 -14 1 -12 14 2 23 15 15 22 -2 2 -10 -2
-16 -10z"/>
<path d="M15527 15499 c4 -13 8 -18 11 -10 2 7 -1 18 -6 23 -8 8 -9 4 -5 -13z"/>
<path d="M17240 15486 c0 -2 7 -7 16 -10 8 -3 12 -2 9 4 -6 10 -25 14 -25 6z"/>
<path d="M2536 15393 c-6 -14 -5 -15 5 -6 7 7 10 15 7 18 -3 3 -9 -2 -12 -12z"/>
<path d="M1090 15330 c6 -11 13 -20 16 -20 2 0 0 9 -6 20 -6 11 -13 20 -16 20
-2 0 0 -9 6 -20z"/>
<path d="M15435 15330 c3 -5 8 -10 11 -10 2 0 4 5 4 10 0 6 -5 10 -11 10 -5 0
-7 -4 -4 -10z"/>
<path d="M15469 15303 c-13 -16 -12 -17 4 -4 16 13 21 21 13 21 -2 0 -10 -8
-17 -17z"/>
<path d="M15431 15260 c-13 -11 -19 -20 -14 -20 6 0 18 9 28 20 23 25 17 25
-14 0z"/>
<path d="M17246 15252 c-3 -5 1 -9 9 -9 8 0 12 4 9 9 -3 4 -7 8 -9 8 -2 0 -6
-4 -9 -8z"/>
<path d="M15412 15211 c7 -9 13 -18 15 -20 1 -2 1 5 0 16 0 11 -7 20 -14 20
-10 0 -10 -4 -1 -16z"/>
<path d="M17850 15151 c0 -6 4 -13 10 -16 6 -3 7 1 4 9 -7 18 -14 21 -14 7z"/>
<path d="M17843 15045 c0 -8 4 -12 9 -9 5 3 6 10 3 15 -9 13 -12 11 -12 -6z"/>
<path d="M17150 14983 c0 -5 10 -18 23 -29 l22 -19 -20 25 c-11 14 -21 27 -22
29 -2 2 -3 0 -3 -6z"/>
<path d="M17132 14965 c4 -4 3 -14 -2 -20 -7 -8 -3 -18 13 -31 22 -19 22 -19
5 2 -13 14 -15 23 -7 31 8 8 7 13 -3 18 -7 5 -10 5 -6 0z"/>
<path d="M1246 14908 c3 -5 10 -6 15 -3 13 9 11 12 -6 12 -8 0 -12 -4 -9 -9z"/>
<path d="M15300 14901 c0 -6 4 -13 10 -16 6 -3 7 1 4 9 -7 18 -14 21 -14 7z"/>
<path d="M15170 14831 c0 -6 4 -13 10 -16 6 -3 7 1 4 9 -7 18 -14 21 -14 7z"/>
<path d="M17155 14800 c-4 -6 -11 -7 -17 -4 -7 4 -8 2 -4 -5 6 -9 11 -9 22 0
14 11 18 19 10 19 -3 0 -8 -5 -11 -10z"/>
<path d="M15336 14777 c3 -10 9 -15 12 -12 3 3 0 11 -7 18 -10 9 -11 8 -5 -6z"/>
<path d="M17086 14752 c-3 -5 1 -9 9 -9 8 0 12 4 9 9 -3 4 -7 8 -9 8 -2 0 -6
-4 -9 -8z"/>
<path d="M14994 14685 c-4 -8 -11 -12 -17 -8 -6 4 -7 1 -2 -7 6 -10 11 -10 20
3 7 9 16 13 20 9 5 -4 5 -1 1 6 -9 16 -15 15 -22 -3z"/>
<path d="M14947 14631 c-10 -14 -10 -14 4 -4 9 7 18 10 21 7 3 -3 8 -1 12 4 9
16 -24 9 -37 -7z"/>
<path d="M15345 14630 c-3 -5 -5 -10 -3 -11 33 -8 38 -7 27 7 -14 17 -16 17
-24 4z"/>
<path d="M15315 14521 c-3 -5 -2 -12 3 -15 5 -3 9 1 9 9 0 17 -3 19 -12 6z"/>
<path d="M1540 14470 c-9 -6 -10 -10 -3 -10 6 0 15 5 18 10 8 12 4 12 -15 0z"/>
<path d="M1604 14438 c-4 -7 -4 -10 1 -6 4 4 15 2 24 -5 14 -11 14 -10 2 6
-16 20 -18 21 -27 5z"/>
<path d="M15229 14393 c-13 -16 -12 -17 4 -4 16 13 21 21 13 21 -2 0 -10 -8
-17 -17z"/>
<path d="M16895 14369 c-11 -16 -1 -19 13 -3 7 8 8 14 3 14 -5 0 -13 -5 -16
-11z"/>
<path d="M1580 14360 c-9 -6 -10 -10 -3 -10 6 0 15 5 18 10 8 12 4 12 -15 0z"/>
<path d="M14766 14343 c-6 -14 -5 -15 5 -6 7 7 10 15 7 18 -3 3 -9 -2 -12 -12z"/>
<path d="M14810 14336 c0 -2 8 -10 18 -17 15 -13 16 -12 3 4 -13 16 -21 21
-21 13z"/>
<path d="M9656 14312 c-8 -7 -14 -9 -45 -11 -11 0 -27 -8 -35 -17 -9 -8 -16
-13 -16 -11 0 5 -131 -60 -175 -87 -90 -56 -166 -110 -201 -144 -21 -20 -54
-50 -72 -65 -19 -15 -31 -27 -27 -27 3 0 -13 -18 -35 -40 -22 -22 -38 -40 -35
-40 4 0 0 -6 -7 -14 -7 -8 -21 -24 -30 -37 -9 -13 -35 -44 -58 -67 -22 -24
-38 -47 -35 -52 3 -4 -2 -11 -11 -14 -8 -3 -12 -10 -9 -16 3 -5 1 -10 -4 -10
-6 0 -11 -7 -11 -15 0 -8 -9 -20 -21 -27 -11 -7 -32 -37 -46 -67 -21 -44 -23
-55 -12 -63 11 -8 10 -9 -3 -4 -12 3 -19 -2 -24 -17 -4 -12 -11 -25 -17 -28
-9 -6 -47 -104 -45 -118 0 -3 -1 -10 -2 -16 -4 -21 -2 -214 3 -222 3 -4 4 -28
2 -53 -1 -26 3 -54 12 -66 7 -12 11 -29 7 -38 -3 -9 -1 -16 5 -16 6 0 11 -15
11 -33 0 -18 4 -37 10 -43 5 -5 11 -23 14 -39 3 -28 6 -37 23 -82 9 -25 14
-44 20 -75 9 -45 20 -32 26 32 4 33 11 68 16 77 6 10 17 41 25 68 22 76 40
121 90 228 25 53 46 101 46 105 0 5 8 17 18 28 28 30 52 72 52 89 0 8 4 15 8
15 5 0 15 12 23 28 21 42 49 78 109 140 30 32 72 76 92 97 45 48 54 56 104 87
22 14 45 33 53 42 7 9 17 16 22 16 10 0 97 58 104 70 5 8 189 102 210 107 6 1
48 16 95 33 47 17 119 38 160 46 41 8 84 16 96 18 34 7 205 17 274 17 83 0
249 -21 274 -33 20 -11 54 -18 99 -21 16 -1 27 -8 27 -16 0 -8 3 -11 7 -8 3 4
11 3 17 -2 6 -4 32 -14 59 -21 26 -7 47 -16 47 -19 0 -4 17 -15 38 -25 20 -10
48 -25 62 -34 14 -9 28 -17 32 -17 3 0 35 -20 70 -45 35 -24 66 -44 70 -43 4
2 10 -6 13 -17 4 -11 9 -20 13 -20 12 0 152 -139 152 -150 0 -7 8 -9 21 -5 17
6 20 4 15 -12 -3 -10 1 -28 9 -39 11 -14 14 -15 15 -4 0 22 82 -126 109 -198
13 -34 28 -65 32 -68 5 -3 9 -14 9 -25 0 -10 5 -19 10 -19 6 0 10 -9 10 -20 0
-22 7 -25 29 -11 13 8 13 12 0 27 -9 11 -9 15 -1 10 6 -4 12 -3 12 3 0 5 -3
11 -7 14 -5 2 -3 2 4 1 18 -5 23 8 29 77 2 34 8 67 11 73 4 6 -2 4 -12 -4 -17
-14 -18 -14 -6 8 7 13 9 31 5 40 -4 9 -6 23 -5 29 4 25 -72 122 -91 115 -5 -1
-8 4 -8 12 0 8 -8 21 -17 28 -10 7 -24 25 -32 40 -8 15 -27 33 -43 40 -15 7
-28 18 -28 25 0 37 -332 303 -378 303 -5 0 -29 13 -55 30 -26 16 -47 26 -47
22 0 -4 -4 -2 -8 3 -4 6 -34 23 -67 40 -33 16 -63 33 -66 37 -9 14 -143 67
-153 61 -5 -3 -6 -1 -2 5 5 8 -1 12 -14 12 -12 0 -19 3 -17 8 3 4 -6 8 -20 9
-14 0 -29 7 -33 13 -5 8 -20 11 -38 8 -17 -2 -29 -1 -26 3 4 8 -49 25 -105 36
-14 2 -29 7 -34 10 -6 3 -7 1 -3 -5 4 -7 2 -12 -3 -12 -6 0 -11 5 -11 11 0 5
-4 8 -9 5 -5 -4 -11 -2 -13 3 -3 9 -37 14 -158 26 -25 3 -56 7 -69 10 -13 3
-102 8 -199 11 -96 2 -178 6 -180 9 -3 3 -11 0 -19 -7 -11 -9 -21 -8 -42 5
-16 9 -31 13 -35 9z"/>
<path d="M15151 14274 c9 -11 9 -14 -1 -14 -8 0 -11 -3 -7 -6 3 -3 16 1 29 10
12 9 18 16 13 17 -6 0 -18 2 -28 4 -15 3 -16 1 -6 -11z"/>
<path d="M16805 14281 c-3 -5 -2 -12 3 -15 5 -3 9 1 9 9 0 17 -3 19 -12 6z"/>
<path d="M14779 14253 c-13 -16 -12 -17 4 -4 9 7 17 15 17 17 0 8 -8 3 -21
-13z"/>
<path d="M13964 14221 c4 -5 0 -11 -6 -14 -7 -3 -3 -4 9 -4 17 1 19 4 11 14
-12 15 -22 18 -14 4z"/>
<path d="M13930 14196 c0 -2 8 -10 18 -17 15 -13 16 -12 3 4 -13 16 -21 21
-21 13z"/>
<path d="M15075 14181 c-3 -5 -2 -12 3 -15 5 -3 9 1 9 9 0 17 -3 19 -12 6z"/>
<path d="M14560 14166 c0 -2 8 -10 18 -17 15 -13 16 -12 3 4 -13 16 -21 21
-21 13z"/>
<path d="M15096 14152 c-3 -5 1 -9 9 -9 8 0 12 4 9 9 -3 4 -7 8 -9 8 -2 0 -6
-4 -9 -8z"/>
<path d="M14379 14117 c6 -8 7 -18 3 -22 -4 -5 -1 -5 6 -1 10 6 10 11 1 22 -6
8 -14 14 -16 14 -3 0 0 -6 6 -13z"/>
<path d="M16620 14126 c0 -2 8 -10 18 -17 15 -13 16 -12 3 4 -13 16 -21 21
-21 13z"/>
<path d="M14305 14029 c-4 -6 -5 -12 -2 -15 2 -3 7 2 10 11 7 17 1 20 -8 4z"/>
<path d="M14955 14020 c-3 -6 1 -7 9 -4 18 7 21 14 7 14 -6 0 -13 -4 -16 -10z"/>
<path d="M14850 13996 c0 -2 8 -10 18 -17 15 -13 16 -12 3 4 -13 16 -21 21
-21 13z"/>
<path d="M14755 13890 c10 -11 20 -20 23 -20 3 0 -3 9 -13 20 -10 11 -20 20
-23 20 -3 0 3 -9 13 -20z"/>
<path d="M14826 13898 c3 -5 10 -6 15 -3 13 9 11 12 -6 12 -8 0 -12 -4 -9 -9z"/>
<path d="M16390 13856 c0 -2 7 -7 16 -10 8 -3 12 -2 9 4 -6 10 -25 14 -25 6z"/>
<path d="M16118 13713 c6 -2 9 -10 6 -15 -4 -7 -2 -8 5 -4 13 9 5 26 -12 25
-9 0 -8 -2 1 -6z"/>
<path d="M17233 13703 c4 -3 2 -12 -4 -19 -7 -8 -7 -14 1 -19 6 -4 9 -1 8 7
-2 7 3 12 11 10 12 -3 12 0 1 12 -7 9 -15 16 -18 16 -3 0 -2 -3 1 -7z"/>
<path d="M14916 13658 c3 -5 10 -6 15 -3 13 9 11 12 -6 12 -8 0 -12 -4 -9 -9z"/>
<path d="M14935 13640 c-3 -5 -1 -10 4 -10 6 0 11 5 11 10 0 6 -2 10 -4 10 -3
0 -8 -4 -11 -10z"/>
<path d="M14799 13553 c-13 -16 -12 -17 4 -4 16 13 21 21 13 21 -2 0 -10 -8
-17 -17z"/>
<path d="M14595 13461 c-3 -5 -2 -12 3 -15 5 -3 9 1 9 9 0 17 -3 19 -12 6z"/>
<path d="M14439 13408 c24 -28 52 -29 30 -2 -6 8 -14 12 -17 9 -3 -3 -12 1
-21 7 -9 7 -5 0 8 -14z"/>
<path d="M14596 13332 c-3 -5 1 -9 9 -9 8 0 12 4 9 9 -3 4 -7 8 -9 8 -2 0 -6
-4 -9 -8z"/>
<path d="M15357 13301 c-10 -14 -10 -14 4 -4 9 7 18 10 21 7 3 -3 8 -1 12 4 9
16 -24 9 -37 -7z"/>
<path d="M15417 13307 c-3 -8 1 -14 8 -14 7 0 11 6 8 14 -3 7 -6 13 -8 13 -2
0 -5 -6 -8 -13z"/>
<path d="M16844 13264 c-18 -14 -18 -15 4 -4 12 6 22 13 22 15 0 8 -5 6 -26
-11z"/>
<path d="M16865 13250 c-3 -6 1 -7 9 -4 18 7 21 14 7 14 -6 0 -13 -4 -16 -10z"/>
<path d="M14850 13158 c0 -4 4 -8 9 -8 6 0 12 4 15 8 3 5 -1 9 -9 9 -8 0 -15
-4 -15 -9z"/>
<path d="M16675 13129 c-3 -4 2 -6 10 -5 21 3 28 13 10 13 -9 0 -18 -4 -20 -8z"/>
<path d="M16599 13053 c-13 -16 -12 -17 4 -4 16 13 21 21 13 21 -2 0 -10 -8
-17 -17z"/>
<path d="M16690 13059 c0 -5 5 -7 10 -4 6 3 10 8 10 11 0 2 -4 4 -10 4 -5 0
-10 -5 -10 -11z"/>
<path d="M16560 13010 c-12 -7 -10 -9 7 -7 12 0 19 5 17 9 -6 10 -6 10 -24 -2z"/>
<path d="M11498 12775 c-38 -36 -68 -70 -68 -76 0 -5 -4 -8 -9 -4 -13 7 -52
-45 -44 -58 4 -6 0 -8 -9 -4 -11 4 -18 -1 -21 -15 -3 -12 -10 -17 -17 -13 -7
4 -14 -1 -17 -14 -3 -11 -15 -23 -26 -27 -26 -8 -48 -29 -40 -38 4 -3 0 -6 -7
-6 -7 0 -22 -9 -34 -20 -35 -34 -145 -122 -202 -163 -30 -21 -54 -43 -54 -49
0 -6 -3 -9 -6 -5 -3 3 -28 -8 -55 -25 -56 -34 -59 -42 -8 -27 19 5 53 12 77
15 53 5 121 31 147 56 11 10 39 31 62 46 23 15 60 44 82 65 23 21 41 36 41 33
0 -2 15 10 33 28 75 72 126 116 136 116 5 0 13 9 16 20 4 11 23 36 42 55 20
19 33 38 30 41 -3 3 4 23 17 43 33 52 39 73 24 83 -19 12 -18 13 -90 -57z"/>
<path d="M16167 12749 c7 -7 15 -10 18 -7 3 3 -2 9 -12 12 -14 6 -15 5 -6 -5z"/>
<path d="M8517 12673 c-2 -5 -5 -79 -5 -165 -1 -119 1 -158 11 -158 8 0 7 -3
-2 -9 -11 -7 -12 -13 -3 -23 6 -8 9 -23 6 -35 -5 -17 11 -109 46 -268 4 -22
14 -66 20 -97 6 -32 16 -58 21 -58 6 0 8 -4 4 -9 -6 -10 14 -62 29 -72 5 -4 6
-11 2 -17 -3 -6 -2 -13 4 -17 5 -3 10 -1 10 6 0 8 4 9 13 1 11 -9 13 7 11 86
-1 53 1 120 5 149 4 29 3 60 -2 69 -6 11 -6 15 1 11 6 -4 12 29 16 91 7 98 20
176 37 222 5 14 10 39 12 55 2 17 9 40 16 53 15 28 9 37 -37 62 -45 25 -75 43
-82 51 -3 3 -21 11 -40 19 -19 8 -38 18 -41 22 -3 5 -15 10 -26 11 -13 0 -19
6 -16 14 5 14 -3 18 -10 6z"/>
<path d="M16105 12549 c-4 -6 -5 -12 -2 -15 2 -3 7 2 10 11 7 17 1 20 -8 4z"/>
<path d="M16026 12459 c2 -4 -2 -10 -8 -12 -8 -4 -9 -6 -2 -6 6 -1 17 5 23 12
8 10 7 14 -4 14 -8 0 -12 -4 -9 -8z"/>
<path d="M15983 12425 c0 -8 4 -12 9 -9 5 3 6 10 3 15 -9 13 -12 11 -12 -6z"/>
<path d="M15420 12351 c0 -6 4 -13 10 -16 6 -3 7 1 4 9 -7 18 -14 21 -14 7z"/>
<path d="M14111 12343 c-1 -17 16 -25 25 -12 4 7 3 9 -4 5 -5 -3 -13 0 -15 6
-4 9 -6 10 -6 1z"/>
<path d="M14115 12299 c-4 -6 -5 -12 -2 -15 2 -3 7 2 10 11 7 17 1 20 -8 4z"/>
<path d="M14140 12276 c0 -2 8 -10 18 -17 15 -13 16 -12 3 4 -13 16 -21 21
-21 13z"/>
<path d="M15300 12200 c-9 -6 -10 -10 -3 -10 6 0 15 5 18 10 8 12 4 12 -15 0z"/>
<path d="M15265 12191 c-3 -5 -2 -12 3 -15 5 -3 9 1 9 9 0 17 -3 19 -12 6z"/>
<path d="M14373 12115 c0 -8 4 -12 9 -9 5 3 6 10 3 15 -9 13 -12 11 -12 -6z"/>
<path d="M14555 12100 c-17 -8 -17 -9 7 -7 15 1 24 5 22 9 -3 4 -6 8 -7 7 -1
0 -11 -4 -22 -9z"/>
<path d="M14176 12073 c-6 -14 -5 -15 5 -6 7 7 10 15 7 18 -3 3 -9 -2 -12 -12z"/>
<path d="M15372 12075 c4 -5 2 -15 -5 -24 -10 -14 -10 -14 5 -3 9 8 22 11 28
7 5 -3 10 -4 10 -1 0 3 -10 11 -22 17 -13 6 -20 8 -16 4z"/>
<path d="M14170 12025 c-11 -13 -10 -14 4 -9 9 3 16 10 16 15 0 13 -6 11 -20
-6z"/>
<path d="M14976 12028 c3 -5 9 -7 12 -4 3 3 11 1 18 -5 8 -7 14 -7 19 1 4 6 3
10 -2 9 -4 -1 -10 0 -13 1 -20 7 -39 7 -34 -2z"/>
<path d="M14993 11985 c0 -8 4 -12 9 -9 5 3 6 10 3 15 -9 13 -12 11 -12 -6z"/>
<path d="M15178 11983 c6 -2 9 -10 6 -15 -4 -7 -2 -8 5 -4 13 9 5 26 -12 25
-9 0 -8 -2 1 -6z"/>
<path d="M15138 11963 c7 -3 16 -2 19 1 4 3 -2 6 -13 5 -11 0 -14 -3 -6 -6z"/>
<path d="M4170 11950 c-30 -4 -84 -17 -120 -28 -36 -11 -82 -23 -102 -27 -21
-3 -38 -9 -38 -13 0 -4 -26 -17 -57 -27 -111 -38 -249 -116 -328 -187 -8 -7
-26 -22 -41 -33 -42 -32 -74 -65 -74 -76 0 -6 -3 -8 -7 -6 -5 3 -21 -13 -38
-34 -16 -21 -38 -41 -47 -44 -10 -3 -15 -12 -11 -21 3 -7 0 -14 -6 -14 -6 0
-11 -9 -11 -19 0 -11 -5 -21 -10 -23 -6 -2 -12 -13 -14 -24 -3 -12 -13 -39
-24 -60 -17 -34 -41 -105 -46 -141 -1 -7 -5 -16 -9 -19 -4 -4 -7 -16 -7 -26 0
-10 -9 -37 -20 -58 -11 -22 -18 -40 -15 -40 3 0 -2 -16 -10 -36 -8 -20 -12
-47 -9 -60 4 -15 2 -24 -5 -24 -6 0 -11 -5 -11 -11 0 -6 7 -9 15 -5 10 3 15
-1 16 -12 0 -14 2 -14 8 3 5 11 7 23 5 26 -4 7 73 89 116 124 64 52 166 117
251 160 11 5 17 16 14 24 -4 11 -3 11 9 2 11 -10 16 -9 23 3 4 8 10 15 13 15
20 1 69 25 65 31 -3 4 6 11 19 14 14 3 58 21 98 40 40 18 84 37 96 41 13 4 45
16 70 28 57 25 54 25 120 36 29 6 63 13 75 18 12 4 31 8 42 10 11 1 36 5 55 8
36 5 240 7 297 2 17 -1 29 -5 26 -9 -2 -5 6 -8 19 -9 21 0 60 -5 113 -12 11
-2 25 -6 30 -9 6 -3 34 -9 63 -13 28 -4 52 -11 52 -17 0 -5 5 -6 11 -2 7 4 38
8 69 8 58 2 116 28 105 46 -4 6 -2 10 4 10 5 0 11 -5 13 -10 2 -6 14 0 28 13
14 12 39 29 57 36 18 7 35 21 38 32 4 12 12 16 23 12 15 -6 15 -5 3 11 -8 10
-23 15 -33 13 -10 -3 -16 -1 -13 3 3 5 -8 24 -25 43 -16 19 -30 40 -30 46 0 6
-4 11 -10 11 -5 0 -10 7 -10 16 0 9 -8 18 -18 21 -10 2 -26 18 -36 34 -12 20
-43 41 -99 68 -82 39 -289 112 -376 132 -56 13 -275 19 -351 9z"/>
<path d="M14105 11909 c-3 -4 2 -6 10 -5 21 3 28 13 10 13 -9 0 -18 -4 -20 -8z"/>
<path d="M14105 11879 c-4 -6 -5 -12 -2 -15 2 -3 7 2 10 11 7 17 1 20 -8 4z"/>
<path d="M14046 11758 c3 -5 10 -6 15 -3 13 9 11 12 -6 12 -8 0 -12 -4 -9 -9z"/>
<path d="M14020 10909 c0 -5 5 -7 10 -4 6 3 10 8 10 11 0 2 -4 4 -10 4 -5 0
-10 -5 -10 -11z"/>
<path d="M14283 10845 c0 -8 4 -12 9 -9 5 3 6 10 3 15 -9 13 -12 11 -12 -6z"/>
<path d="M3084 10815 c0 -13 3 -22 7 -19 8 4 6 30 -2 38 -3 3 -5 -5 -5 -19z"/>
<path d="M14256 10812 c-3 -5 1 -9 9 -9 8 0 12 4 9 9 -3 4 -7 8 -9 8 -2 0 -6
-4 -9 -8z"/>
<path d="M14480 10760 c-9 -6 -10 -10 -3 -10 6 0 15 5 18 10 8 12 4 12 -15 0z"/>
<path d="M3045 10699 c-4 -6 -5 -12 -2 -15 2 -3 7 2 10 11 7 17 1 20 -8 4z"/>
<path d="M14676 10678 c3 -5 10 -6 15 -3 13 9 11 12 -6 12 -8 0 -12 -4 -9 -9z"/>
<path d="M14796 10632 c-3 -5 1 -9 9 -9 8 0 12 4 9 9 -3 4 -7 8 -9 8 -2 0 -6
-4 -9 -8z"/>
<path d="M14746 10618 c3 -5 10 -6 15 -3 13 9 11 12 -6 12 -8 0 -12 -4 -9 -9z"/>
<path d="M14105 10570 c-3 -6 1 -7 9 -4 18 7 21 14 7 14 -6 0 -13 -4 -16 -10z"/>
<path d="M14330 10421 c0 -6 4 -13 10 -16 6 -3 7 1 4 9 -7 18 -14 21 -14 7z"/>
<path d="M14430 10415 c0 -2 6 -8 13 -14 10 -8 14 -7 14 2 0 8 -6 14 -14 14
-7 0 -13 -1 -13 -2z"/>
<path d="M2810 10385 c0 -2 6 -8 13 -14 10 -8 14 -7 14 2 0 8 -6 14 -14 14 -7
0 -13 -1 -13 -2z"/>
<path d="M2804 10349 c-3 -6 -1 -16 5 -22 9 -9 10 -7 5 7 -6 15 -4 17 6 11 9
-5 11 -4 6 3 -9 15 -13 15 -22 1z"/>
<path d="M14700 10290 c8 -5 20 -10 25 -10 6 0 3 5 -5 10 -8 5 -19 10 -25 10
-5 0 -3 -5 5 -10z"/>
<path d="M14750 10251 c0 -6 4 -13 10 -16 6 -3 7 1 4 9 -7 18 -14 21 -14 7z"/>
<path d="M14805 10221 c-3 -5 -2 -12 3 -15 5 -3 9 1 9 9 0 17 -3 19 -12 6z"/>
<path d="M14904 10095 c-9 -14 -15 -27 -13 -30 3 -2 12 10 21 26 21 36 15 39
-8 4z"/>
<path d="M14805 10100 c-3 -6 1 -7 9 -4 18 7 21 14 7 14 -6 0 -13 -4 -16 -10z"/>
<path d="M14817 9989 c7 -7 15 -10 18 -7 3 3 -2 9 -12 12 -14 6 -15 5 -6 -5z"/>
<path d="M14734 9828 c-4 -7 -4 -10 1 -6 4 4 16 3 26 -3 11 -5 19 -7 19 -5 0
3 -9 10 -19 16 -15 7 -22 7 -27 -2z"/>
<path d="M2593 9816 c1 -6 -4 -10 -11 -8 -8 1 -11 -2 -7 -8 5 -8 13 -6 26 6
23 21 23 21 5 21 -8 0 -14 -5 -13 -11z"/>
<path d="M14625 9659 c-4 -6 -5 -12 -2 -15 2 -3 7 2 10 11 7 17 1 20 -8 4z"/>
<path d="M3888 9635 c-2 -2 -63 -5 -136 -7 -72 -1 -132 -5 -132 -8 0 -3 -15
-6 -33 -6 -17 -1 -77 -9 -132 -18 -55 -9 -116 -18 -135 -21 -19 -3 -57 -10
-85 -16 -27 -5 -68 -13 -90 -16 -22 -3 -48 -9 -57 -14 -9 -5 -30 -9 -47 -9
-16 0 -33 -4 -36 -10 -3 -5 -20 -10 -36 -10 -17 0 -28 -4 -24 -10 3 -5 -7 -7
-26 -5 -31 4 -109 -23 -109 -37 0 -5 -9 -8 -19 -8 -11 0 -23 -5 -26 -10 -4 -6
-11 -8 -16 -5 -5 4 -15 3 -21 -2 -7 -4 -17 -8 -23 -9 -5 -1 -37 -12 -70 -25
-33 -13 -63 -22 -67 -21 -5 1 -8 -3 -8 -9 0 -5 -4 -7 -10 -4 -5 3 -15 -3 -22
-15 -7 -11 -18 -20 -25 -20 -7 0 -13 -5 -13 -12 0 -6 -3 -8 -7 -5 -3 4 -11 2
-18 -3 -6 -5 -21 -11 -33 -13 -12 -2 -29 -12 -37 -23 -8 -10 -15 -14 -15 -9 0
6 -6 -1 -13 -15 -7 -13 -23 -30 -36 -36 -13 -7 -26 -16 -30 -21 -3 -6 -14 -14
-23 -19 -31 -17 -179 -167 -221 -224 -22 -30 -44 -57 -47 -60 -13 -10 -88
-135 -95 -160 -4 -14 -12 -31 -18 -38 -29 -36 -95 -191 -102 -238 -2 -12 -7
-30 -13 -40 -10 -20 -27 -103 -24 -118 2 -4 -3 -15 -10 -24 -10 -12 -10 -14 0
-8 15 9 15 1 1 -27 -13 -23 -20 -127 -9 -127 4 0 4 -14 2 -31 -3 -22 -1 -30 7
-25 6 4 11 2 11 -3 0 -6 -4 -11 -8 -11 -9 0 -7 -31 8 -110 14 -70 30 -112 50
-127 11 -10 12 -12 1 -13 -9 0 -11 -8 -6 -27 3 -15 10 -30 13 -33 4 -3 9 -14
10 -25 2 -11 9 -23 15 -27 7 -4 9 -8 5 -8 -9 0 49 -118 78 -155 13 -18 24 -37
24 -43 0 -6 7 -9 15 -6 9 4 15 0 15 -10 0 -9 5 -16 11 -16 5 0 7 -4 4 -10 -3
-5 0 -10 7 -10 7 0 20 -13 29 -29 9 -15 34 -41 55 -57 21 -16 56 -46 77 -66
22 -21 43 -35 48 -33 4 3 10 -3 13 -13 4 -10 19 -25 34 -33 32 -16 81 -49 100
-66 7 -7 20 -13 28 -13 8 0 14 -5 14 -11 0 -5 4 -8 8 -5 5 3 19 -4 30 -15 12
-11 22 -18 22 -15 0 2 21 -6 47 -19 28 -13 59 -21 75 -18 19 3 28 0 28 -9 0
-8 10 -14 22 -15 11 -1 24 -7 28 -13 6 -10 26 -17 95 -33 6 -1 16 -6 23 -10 6
-5 12 -6 12 -2 0 3 9 1 20 -5 15 -8 20 -8 20 2 0 10 3 9 9 -1 6 -10 29 -15 70
-15 36 -1 61 -5 61 -12 0 -11 51 -10 71 1 7 5 10 4 6 -2 -4 -6 22 -11 71 -13
111 -3 113 -3 152 5 57 11 111 12 106 0 -5 -13 106 -10 154 4 19 6 45 11 57
11 12 0 34 5 50 12 15 6 32 10 37 9 6 -1 19 2 30 8 12 5 46 20 76 33 30 12 64
30 74 40 11 10 26 18 33 18 7 0 13 4 13 9 0 5 10 12 23 15 12 3 37 19 56 36
18 16 38 30 43 30 5 0 6 5 2 11 -4 7 -1 10 7 7 17 -6 73 48 64 62 -3 5 1 10
10 10 9 0 14 4 11 9 -3 5 4 11 15 14 12 3 18 10 15 15 -3 5 3 17 14 27 11 10
20 24 20 30 0 7 14 30 31 51 17 22 38 54 45 72 8 17 19 32 24 32 6 0 10 12 10
26 0 19 4 25 15 20 8 -3 15 0 15 7 0 7 13 34 29 59 16 25 27 49 24 52 -4 3 1
14 9 23 9 10 21 36 28 58 7 22 30 65 51 97 41 59 47 73 27 63 -7 -4 -6 -1 2 7
8 7 31 33 50 58 18 25 44 56 57 70 12 14 34 40 49 58 14 17 29 30 34 27 4 -3
13 9 20 25 7 17 16 30 19 30 10 0 37 28 96 96 28 33 62 71 78 86 15 14 27 29
27 33 0 3 7 14 16 23 11 11 13 17 5 20 -6 2 -9 8 -6 12 3 5 12 7 19 4 9 -3 17
3 21 15 3 12 12 21 18 21 7 0 6 4 -3 10 -13 8 -13 10 1 10 16 0 47 46 37 56
-3 3 5 17 18 31 13 14 24 31 24 37 0 6 6 23 14 38 8 15 16 44 18 65 1 21 7 41
11 44 13 10 15 43 3 52 -8 6 -7 10 2 14 6 2 12 9 12 14 0 6 -3 8 -8 5 -4 -2
-8 28 -8 67 -1 73 -7 107 -20 129 -5 7 -9 35 -11 62 -2 32 -9 53 -18 59 -8 4
-15 15 -15 23 0 9 -14 29 -30 46 -17 16 -28 34 -24 39 3 5 0 9 -5 9 -6 0 -11
6 -11 13 0 20 -106 103 -172 134 -21 10 -38 21 -38 25 0 5 -8 8 -17 8 -9 0
-24 6 -32 14 -9 7 -54 28 -101 46 -47 17 -101 38 -120 45 -82 32 -180 55 -248
59 -40 3 -77 8 -82 11 -5 3 -54 8 -107 11 -54 2 -114 6 -135 9 -20 2 -38 2
-40 0z m312 -115 c47 -6 96 -13 110 -15 14 -1 44 -8 66 -14 23 -6 54 -13 70
-15 60 -7 108 -19 133 -32 14 -8 31 -14 38 -14 21 0 128 -78 189 -139 78 -76
105 -113 130 -178 11 -30 25 -58 30 -61 13 -10 17 -35 4 -27 -7 4 -9 -2 -5
-17 20 -91 23 -122 19 -173 -4 -42 -2 -60 8 -66 10 -7 9 -9 -4 -9 -11 0 -20
-16 -29 -52 -13 -57 -96 -228 -116 -241 -7 -4 -13 -15 -13 -24 0 -12 -6 -14
-27 -9 -117 28 -244 14 -318 -33 -69 -45 -102 -74 -88 -78 6 -2 -3 -18 -18
-34 -16 -17 -29 -35 -29 -41 0 -5 -9 -29 -20 -54 -30 -64 -42 -96 -44 -119 -2
-11 -8 -36 -14 -55 -13 -41 -22 -260 -11 -260 19 0 -7 -113 -42 -182 -5 -10
-9 -25 -9 -33 0 -8 -4 -15 -10 -15 -5 0 -10 -7 -10 -15 0 -9 -11 -27 -25 -40
-13 -14 -22 -25 -19 -25 2 0 -2 -13 -11 -30 -8 -16 -16 -33 -16 -37 -1 -5 -14
-27 -30 -50 -16 -23 -29 -44 -29 -48 0 -10 -98 -105 -108 -105 -6 0 -12 -6
-15 -13 -6 -15 -111 -68 -172 -87 -22 -7 -46 -17 -52 -22 -7 -6 -25 -11 -40
-13 -40 -3 -73 -15 -73 -26 0 -9 -35 -7 -46 3 -3 4 -17 3 -30 -2 -24 -10 -100
-19 -185 -24 -25 -2 -50 -6 -56 -9 -5 -3 -15 -2 -23 3 -8 5 -21 5 -31 -1 -11
-5 -19 -5 -21 1 -2 6 -52 13 -111 16 -59 2 -129 9 -155 15 -26 5 -53 10 -59
11 -7 1 -13 5 -13 10 0 4 -16 8 -35 8 -19 0 -57 9 -85 20 -31 12 -50 16 -50 9
0 -8 -5 -7 -15 1 -8 7 -12 16 -9 21 3 5 -11 9 -30 9 -19 0 -37 4 -40 9 -3 5
-18 12 -33 16 -40 10 -173 76 -173 86 0 5 -3 8 -7 7 -15 -3 -69 27 -96 54 -15
15 -33 28 -41 28 -20 0 -246 223 -246 242 0 9 -11 26 -25 39 -13 13 -25 30
-25 37 0 6 -4 12 -10 12 -5 0 -10 6 -10 14 0 7 -7 19 -15 26 -9 7 -14 15 -11
17 6 7 -13 73 -36 122 -24 50 -38 107 -42 166 -1 22 -6 48 -11 58 -4 10 -5 42
-3 72 3 36 1 55 -6 55 -8 0 -8 3 0 8 6 4 17 34 23 67 7 33 15 72 18 88 3 15 1
27 -5 27 -6 0 -2 18 9 40 10 21 19 46 19 55 0 8 5 15 11 15 5 0 7 5 4 10 -3 6
-2 10 3 10 5 0 14 17 20 39 24 77 78 179 137 256 8 10 15 23 15 28 0 5 6 14
13 22 6 7 21 25 32 40 24 33 117 136 165 184 19 20 63 54 98 77 34 22 59 44
55 47 -3 4 5 7 19 7 14 0 37 10 52 23 14 13 51 36 81 52 30 15 55 32 55 37 0
5 4 7 9 3 5 -3 40 8 77 25 37 17 81 34 98 37 17 3 41 12 54 20 13 8 31 12 39
9 9 -4 21 -2 28 4 7 6 26 12 41 14 16 2 56 13 89 24 33 11 62 19 66 16 3 -2
21 1 40 7 19 5 54 12 79 15 25 3 62 10 83 15 20 5 42 7 47 4 5 -3 18 -1 28 4
18 10 218 30 330 34 28 0 52 4 52 7 0 8 302 -7 400 -20z m560 -1170 c0 -12
-100 -110 -111 -110 -6 0 -7 -4 -4 -10 3 -5 2 -10 -3 -10 -5 0 -34 -30 -65
-67 -30 -38 -73 -88 -96 -113 -22 -25 -41 -50 -41 -55 0 -6 -9 -18 -20 -28
-11 -9 -20 -25 -20 -35 0 -10 -13 -33 -29 -52 l-30 -35 5 98 c6 140 27 224 72
285 20 28 42 52 48 52 6 0 17 6 23 14 17 21 98 56 144 64 55 10 127 10 127 2z
m-2970 -384 c0 -3 -4 -8 -10 -11 -5 -3 -10 -1 -10 4 0 6 5 11 10 11 6 0 10 -2
10 -4z"/>
<path d="M14569 9463 c-13 -16 -12 -17 4 -4 9 7 17 15 17 17 0 8 -8 3 -21 -13z"/>
<path d="M2433 9427 c0 -7 9 -13 19 -13 10 0 18 1 18 3 0 1 -8 7 -18 12 -13 7
-19 6 -19 -2z"/>
<path d="M14530 9436 c0 -2 8 -10 18 -17 15 -13 16 -12 3 4 -13 16 -21 21 -21
13z"/>
<path d="M14505 9330 c3 -5 8 -10 11 -10 2 0 4 5 4 10 0 6 -5 10 -11 10 -5 0
-7 -4 -4 -10z"/>
<path d="M14526 9288 c3 -5 10 -6 15 -3 13 9 11 12 -6 12 -8 0 -12 -4 -9 -9z"/>
<path d="M14413 9105 c0 -8 4 -12 9 -9 5 3 6 10 3 15 -9 13 -12 11 -12 -6z"/>
<path d="M14086 8548 c3 -5 10 -6 15 -3 13 9 11 12 -6 12 -8 0 -12 -4 -9 -9z"/>
<path d="M14005 8381 c-3 -5 -2 -12 3 -15 5 -3 9 1 9 9 0 17 -3 19 -12 6z"/>
<path d="M13945 8281 c-3 -5 -2 -12 3 -15 5 -3 9 1 9 9 0 17 -3 19 -12 6z"/>
<path d="M13823 8129 c-2 -23 3 -25 10 -4 4 8 3 16 -1 19 -4 3 -9 -4 -9 -15z"/>
<path d="M13525 7441 c-3 -5 -2 -12 3 -15 5 -3 9 1 9 9 0 17 -3 19 -12 6z"/>
<path d="M12205 7300 c-3 -6 1 -7 9 -4 18 7 21 14 7 14 -6 0 -13 -4 -16 -10z"/>
<path d="M13535 5881 c-3 -5 -2 -12 3 -15 5 -3 9 1 9 9 0 17 -3 19 -12 6z"/>
<path d="M13536 5782 c-3 -5 1 -9 9 -9 8 0 12 4 9 9 -3 4 -7 8 -9 8 -2 0 -6
-4 -9 -8z"/>
<path d="M13536 5692 c-3 -5 1 -9 9 -9 8 0 12 4 9 9 -3 4 -7 8 -9 8 -2 0 -6
-4 -9 -8z"/>
<path d="M13603 5355 c0 -8 4 -12 9 -9 5 3 6 10 3 15 -9 13 -12 11 -12 -6z"/>
<path d="M13873 4995 c0 -8 4 -12 9 -9 5 3 6 10 3 15 -9 13 -12 11 -12 -6z"/>
<path d="M13695 4700 c-3 -6 1 -7 9 -4 18 7 21 14 7 14 -6 0 -13 -4 -16 -10z"/>
<path d="M14554 4634 c-18 -14 -18 -15 4 -4 12 6 22 13 22 15 0 8 -5 6 -26
-11z"/>
<path d="M15436 4348 c3 -5 10 -6 15 -3 13 9 11 12 -6 12 -8 0 -12 -4 -9 -9z"/>
<path d="M16136 4138 c3 -5 10 -6 15 -3 13 9 11 12 -6 12 -8 0 -12 -4 -9 -9z"/>
<path d="M18365 3939 c-4 -6 -4 -13 -1 -16 3 -4 6 -1 6 6 0 7 5 9 12 5 7 -4 8
-3 4 4 -9 15 -13 15 -21 1z"/>
<path d="M18593 3885 c0 -8 4 -12 9 -9 5 3 6 10 3 15 -9 13 -12 11 -12 -6z"/>
<path d="M18690 3861 c0 -6 4 -13 10 -16 6 -3 7 1 4 9 -7 18 -14 21 -14 7z"/>
<path d="M18573 3832 c-9 -5 -6 -12 10 -21 19 -13 21 -12 10 1 -7 8 -10 18 -6
21 9 9 1 8 -14 -1z"/>
<path d="M18609 3817 c6 -8 7 -18 3 -22 -4 -5 -1 -5 6 -1 10 6 10 11 1 22 -6
8 -14 14 -16 14 -3 0 0 -6 6 -13z"/>
<path d="M18936 3801 c-4 -5 -2 -12 3 -15 5 -4 12 -2 15 3 4 5 2 12 -3 15 -5
4 -12 2 -15 -3z"/>
<path d="M18993 3783 c1 -17 4 -19 14 -11 15 12 18 22 4 14 -5 -4 -11 0 -14 6
-3 7 -4 3 -4 -9z"/>
<path d="M18895 3731 c-3 -5 -2 -12 3 -15 5 -3 9 1 9 9 0 17 -3 19 -12 6z"/>
<path d="M18980 3710 c6 -11 13 -20 16 -20 2 0 0 9 -6 20 -6 11 -13 20 -16 20
-2 0 0 -9 6 -20z"/>
<path d="M19366 3642 c-3 -5 1 -9 9 -9 8 0 12 4 9 9 -3 4 -7 8 -9 8 -2 0 -6
-4 -9 -8z"/>
<path d="M6785 3591 c-3 -5 -2 -12 3 -15 5 -3 9 1 9 9 0 17 -3 19 -12 6z"/>
<path d="M6245 3260 c-3 -6 1 -7 9 -4 18 7 21 14 7 14 -6 0 -13 -4 -16 -10z"/>
<path d="M19960 3256 c0 -2 8 -10 18 -17 15 -13 16 -12 3 4 -13 16 -21 21 -21
13z"/>
<path d="M6008 3222 c4 -10 7 -12 10 -4 2 7 9 9 15 5 7 -3 8 -2 4 2 -14 16
-36 14 -29 -3z"/>
<path d="M5605 2990 c-3 -6 1 -7 9 -4 18 7 21 14 7 14 -6 0 -13 -4 -16 -10z"/>
<path d="M5229 2903 c-13 -16 -12 -17 4 -4 16 13 21 21 13 21 -2 0 -10 -8 -17
-17z"/>
<path d="M3611 2456 c-10 -11 -9 -14 1 -12 14 2 23 15 15 22 -2 2 -10 -2 -16
-10z"/>
<path d="M3056 2432 c-3 -5 1 -9 9 -9 8 0 12 4 9 9 -3 4 -7 8 -9 8 -2 0 -6 -4
-9 -8z"/>
<path d="M2510 2296 c0 -2 7 -7 16 -10 8 -3 12 -2 9 4 -6 10 -25 14 -25 6z"/>
<path d="M932 1801 c-11 -7 -11 -9 0 -14 9 -3 15 1 15 9 0 8 -1 14 -1 14 -1 0
-7 -4 -14 -9z"/>
<path d="M860 1786 c0 -3 9 -10 20 -16 11 -6 20 -8 20 -6 0 3 -9 10 -20 16
-11 6 -20 8 -20 6z"/>
<path d="M727 1701 c-4 -17 -3 -21 5 -13 5 5 8 16 6 23 -3 8 -7 3 -11 -10z"/>
<path d="M550 1516 c0 -2 8 -10 18 -17 15 -13 16 -12 3 4 -13 16 -21 21 -21
13z"/>
<path d="M203 1215 c0 -8 4 -12 9 -9 5 3 6 10 3 15 -9 13 -12 11 -12 -6z"/>
<path d="M6 1157 c3 -10 9 -15 12 -12 3 3 0 11 -7 18 -10 9 -11 8 -5 -6z"/>
<path d="M105 1090 c-4 -6 -11 -7 -17 -4 -7 4 -8 2 -4 -5 6 -9 12 -9 24 1 10
7 19 14 21 15 2 2 -1 3 -7 3 -6 0 -14 -5 -17 -10z"/>
</g>
</svg>
